HIERARCHY
ROOT Hips
{
	OFFSET -0.001795 -0.223333 0.028219
	CHANNELS 6 Xposition Yposition Zposition Zrotation Yrotation Xrotation 
	JOINT LeftUpLeg
	{
		OFFSET 0.069520 -0.091406 -0.006815
		CHANNELS 3 Zrotation Yrotation Xrotation
		JOINT LeftLeg
		{
			OFFSET 0.034277 -0.375199 -0.004496
			CHANNELS 3 Zrotation Yrotation Xrotation
			JOINT LeftFoot
			{
				OFFSET -0.013596 -0.397961 -0.043693
				CHANNELS 3 Zrotation Yrotation Xrotation
				JOINT LeftToe
				{
					OFFSET 0.026358 -0.055791 0.119288
					CHANNELS 3 Zrotation Yrotation Xrotation
					End Site
					{
						OFFSET 0.000000 0.000000 0.000000
					}
				}
			}
		}
	}
	JOINT RightUpLeg
	{
		OFFSET -0.067670 -0.090522 -0.004320
		CHANNELS 3 Zrotation Yrotation Xrotation
		JOINT RightLeg
		{
			OFFSET -0.038290 -0.382569 -0.008850
			CHANNELS 3 Zrotation Yrotation Xrotation
			JOINT RightFoot
			{
				OFFSET 0.015774 -0.398415 -0.042312
				CHANNELS 3 Zrotation Yrotation Xrotation
				JOINT RightToe
				{
					OFFSET -0.025372 -0.048144 0.123348
					CHANNELS 3 Zrotation Yrotation Xrotation
					End Site
					{
						OFFSET 0.000000 0.000000 0.000000
					}
				}
			}
		}
	}
	JOINT Spine
	{
		OFFSET -0.002533 0.108963 -0.026696
		CHANNELS 3 Zrotation Yrotation Xrotation
		JOINT Spine1
		{
			OFFSET 0.005487 0.135180 0.001092
			CHANNELS 3 Zrotation Yrotation Xrotation
			JOINT Spine2
			{
				OFFSET 0.001457 0.052922 0.025425
				CHANNELS 3 Zrotation Yrotation Xrotation
				JOINT Neck
				{
					OFFSET -0.002778 0.213870 -0.042857
					CHANNELS 3 Zrotation Yrotation Xrotation
					JOINT Head
					{
						OFFSET 0.005152 0.064970 0.051349
						CHANNELS 3 Zrotation Yrotation Xrotation
						End Site
						{
							OFFSET 0.000000 0.000000 0.000000
						}
					}
				}
				JOINT LeftShoulder
				{
					OFFSET 0.078845 0.121749 -0.034090
					CHANNELS 3 Zrotation Yrotation Xrotation
					JOINT LeftArm
					{
						OFFSET 0.090977 0.030469 -0.008868
						CHANNELS 3 Zrotation Yrotation Xrotation
						JOINT LeftForeArm
						{
							OFFSET 0.259612 -0.012772 -0.027456
							CHANNELS 3 Zrotation Yrotation Xrotation
							JOINT LeftHand
							{
								OFFSET 0.249234 0.008986 -0.001171
								CHANNELS 3 Zrotation Yrotation Xrotation
								End Site
								{
									OFFSET 0.000000 0.000000 0.000000
								}
							}
						}
					}
				}
				JOINT RightShoulder
				{
					OFFSET -0.081759 0.118833 -0.038615
					CHANNELS 3 Zrotation Yrotation Xrotation
					JOINT RightArm
					{
						OFFSET -0.096012 0.032551 -0.009143
						CHANNELS 3 Zrotation Yrotation Xrotation
						JOINT RightForeArm
						{
							OFFSET -0.253742 -0.013329 -0.021401
							CHANNELS 3 Zrotation Yrotation Xrotation
							JOINT RightHand
							{
								OFFSET -0.255298 0.007772 -0.005559
								CHANNELS 3 Zrotation Yrotation Xrotation
								End Site
								{
									OFFSET 0.000000 0.000000 0.000000
								}
							}
						}
					}
				}
			}
		}
	}
}
MOTION
Frames: 13
Frame Time: 0.050000
-0.253475 0.938844 2.209387 -2.719147 -13.996358 -3.825296 3.616929 -0.467608 -34.573936 -5.294424 4.234017 45.174559 4.111382 7.689173 -3.808482 0.000000 0.000000 0.000000 -0.871999 -0.330874 5.161331 8.453052 1.908150 59.887932 -0.708625 -5.044209 6.621743 0.000000 0.000000 0.000000 -9.419663 1.393298 19.388164 7.731973 -0.939408 -28.359093 10.247865 13.386123 33.557419 1.859129 2.278292 -40.430422 0.000000 0.000000 0.000000 -28.282388 14.744773 -13.518543 -38.966839 18.993905 -11.547906 -23.046802 -39.072740 9.857944 0.000000 0.000000 0.000000 16.520452 7.541111 4.249440 50.391138 32.353719 5.889284 16.649054 71.795105 19.072614 0.000000 0.000000 0.000000 
-0.257603 0.914015 2.271266 -2.637818 -10.558028 -5.122334 1.108718 -1.685750 -32.171707 -2.662065 2.427701 50.581970 4.042163 6.088812 -9.388242 0.000000 0.000000 0.000000 -2.117313 0.769205 -8.420163 14.793895 -4.679396 88.118052 -3.493752 -11.795909 13.604971 0.000000 0.000000 0.000000 -9.360459 1.431970 22.271037 7.522824 -1.114556 -26.832817 8.445020 10.272991 31.317495 2.420838 1.938188 -41.827170 0.000000 0.000000 0.000000 -31.487271 12.454125 -12.511660 -37.692657 9.903627 -8.628507 -21.914958 -41.725289 10.259985 0.000000 0.000000 0.000000 19.406841 6.972722 3.882701 50.856276 25.846868 3.017457 14.969021 67.739779 15.999510 0.000000 0.000000 0.000000 
-0.261763 0.904821 2.327625 -3.460826 -7.183567 -7.746031 0.429961 -1.995463 -27.425768 -1.921879 1.200748 54.215816 4.555747 6.426529 -11.661542 0.000000 0.000000 0.000000 -3.094417 2.198603 -24.345313 16.450828 -15.458122 111.982809 -5.819168 -15.815307 17.623487 0.000000 0.000000 0.000000 -7.969002 1.200666 27.270415 7.921363 -1.105951 -27.907966 6.623635 7.082672 31.908247 2.233777 1.978397 -44.320363 0.000000 0.000000 0.000000 -34.430017 8.600886 -9.990443 -37.148503 0.464247 -6.187887 -15.674941 -47.185439 9.141890 0.000000 0.000000 0.000000 22.151003 7.213586 3.942344 49.773636 20.884642 0.517391 6.342553 58.881158 8.065277 0.000000 0.000000 0.000000 
-0.266865 0.914218 2.386343 -4.528686 -4.580252 -10.387801 -0.096433 -1.826760 -21.041475 -1.029718 -0.299834 54.375920 3.972109 3.822920 -13.413781 0.000000 0.000000 0.000000 -6.963196 2.377550 -40.461951 16.198712 -25.635879 125.498810 -7.715984 -19.046605 12.140362 0.000000 0.000000 0.000000 -5.096535 0.359708 31.289206 7.106858 -0.727810 -30.303664 5.028383 2.929502 33.684041 1.539464 1.885186 -44.403482 0.000000 0.000000 0.000000 -33.854108 6.286864 -6.833741 -39.235546 -5.216268 -5.502962 -14.531819 -55.972617 11.168636 0.000000 0.000000 0.000000 23.487718 6.562172 2.939064 48.720370 14.074277 -2.420426 7.079666 55.839185 7.386461 0.000000 0.000000 0.000000 
-0.273341 0.934476 2.448760 -6.387557 -1.530959 -12.697308 1.577272 -0.938611 -12.571606 -0.733035 -1.550699 50.400956 3.049669 1.722450 -11.407386 0.000000 0.000000 0.000000 -10.996437 0.521388 -53.828539 17.642857 -31.676950 124.694726 -10.018333 -24.111742 5.227182 0.000000 0.000000 0.000000 -1.375090 -1.028765 33.964732 7.035445 -0.598367 -31.849026 2.773219 -1.107179 33.309250 1.133022 1.653842 -43.037661 0.000000 0.000000 0.000000 -33.003498 6.715910 -6.038439 -40.408722 -7.697329 -5.206770 -18.225624 -64.477851 16.236410 0.000000 0.000000 0.000000 23.258758 4.899242 1.336938 47.406338 8.129859 -4.536286 11.777853 55.427037 9.239756 0.000000 0.000000 0.000000 
-0.280498 0.955005 2.513439 -8.332941 1.503076 -13.636273 4.152930 -0.184098 -4.490054 -0.710378 -2.187504 44.823909 2.041762 -1.451037 -11.148023 0.000000 0.000000 0.000000 -14.379002 -2.702025 -61.860870 23.190230 -33.079587 108.351546 -10.692776 -25.843569 2.719176 0.000000 0.000000 0.000000 1.659438 -2.307154 34.607662 7.440527 -0.651262 -32.332455 1.328564 -4.266822 32.523215 -0.194587 1.958088 -41.553216 0.000000 0.000000 0.000000 -32.828005 7.058839 -5.779181 -41.374713 -9.916656 -4.677823 -19.474150 -66.991270 18.223401 0.000000 0.000000 0.000000 21.628882 1.955146 -0.629390 47.728373 2.769503 -6.427684 18.120933 53.517961 11.747020 0.000000 0.000000 0.000000 
-0.288914 0.962433 2.578116 -9.486184 3.162680 -14.009288 7.354963 0.055473 0.462946 -1.159751 -2.240077 42.972566 0.686902 -5.125490 -10.614499 0.000000 0.000000 0.000000 -15.529489 -4.402166 -64.201644 27.415256 -27.713790 85.734635 -10.180684 -23.846078 7.360354 0.000000 0.000000 0.000000 2.983790 -2.861744 34.105182 7.894341 -0.826734 -31.322472 1.084443 -6.176906 30.682931 -0.253560 1.748374 -39.460919 0.000000 0.000000 0.000000 -32.450572 7.449686 -5.718699 -42.096161 -11.102821 -4.314971 -26.362013 -68.690327 23.959141 0.000000 0.000000 0.000000 22.185828 0.337606 -1.927208 46.321106 -1.390228 -7.476871 20.186435 54.166085 12.631039 0.000000 0.000000 0.000000 
-0.298997 0.953868 2.643431 -9.570031 3.493150 -13.868350 8.797253 0.060586 4.825872 -0.111147 -2.714417 41.618441 0.343056 -7.937004 -12.732671 0.000000 0.000000 0.000000 -14.543572 -3.819246 -63.219255 26.868767 -20.795410 69.061967 -7.492633 -18.473302 13.358969 0.000000 0.000000 0.000000 2.577965 -2.698750 33.295438 9.568597 -1.159439 -31.498700 -0.127715 -6.180155 30.759126 -0.247213 1.729329 -39.025344 0.000000 0.000000 0.000000 -31.281720 7.012614 -5.286223 -42.893511 -12.397907 -3.946361 -34.818152 -70.689660 31.298713 0.000000 0.000000 0.000000 23.031532 -0.071787 -2.198136 46.706340 -3.694163 -8.424005 19.609131 55.431085 12.797692 0.000000 0.000000 0.000000 
-0.311152 0.927327 2.709998 -9.375049 5.349396 -14.675282 9.776309 -0.080708 8.283118 0.167929 -3.342770 42.910912 -0.379691 -9.421370 -11.793489 0.000000 0.000000 0.000000 -12.190037 -2.993172 -61.410977 23.667395 -18.293431 67.566412 -6.578451 -16.745713 13.141670 0.000000 0.000000 0.000000 3.368931 -2.864843 31.422858 8.422155 -1.139198 -28.909033 -0.878388 -7.343358 29.210981 -0.305177 1.733342 -38.756588 0.000000 0.000000 0.000000 -31.397519 5.159026 -4.096319 -41.276802 -13.876388 -3.244429 -42.201065 -72.688887 37.882834 0.000000 0.000000 0.000000 25.782306 -0.169950 -2.709752 45.021380 -5.646239 -8.565310 14.341715 56.349413 10.081351 0.000000 0.000000 0.000000 
-0.324529 0.903211 2.771397 -9.186200 5.797617 -15.396884 11.979302 -0.325008 9.653476 -0.212735 -3.765341 47.074930 -3.227568 -8.928986 -2.689716 0.000000 0.000000 0.000000 -8.817582 -1.200669 -63.271817 21.436198 -19.432332 76.780294 -9.374216 -21.808010 7.247634 0.000000 0.000000 0.000000 3.568033 -3.030530 32.066117 8.134211 -0.909600 -31.050423 -1.397545 -6.713231 30.413993 -1.884170 2.726227 -41.762670 0.000000 0.000000 0.000000 -32.972025 3.963006 -3.736264 -38.934713 -14.012271 -3.160506 -52.512341 -73.436458 46.349143 0.000000 0.000000 0.000000 27.273027 0.114764 -2.296825 44.162772 -4.289784 -8.193615 7.846056 58.225812 7.228701 0.000000 0.000000 0.000000 
-0.336119 0.908503 2.820517 -10.123436 6.889337 -16.649348 14.054936 -0.472443 7.754545 -0.788466 -4.579131 52.637363 -4.851813 -6.171817 5.983967 0.000000 0.000000 0.000000 -6.407942 -0.177893 -62.464611 21.016697 -20.944324 80.408887 -10.993646 -25.207348 4.562158 0.000000 0.000000 0.000000 5.124493 -3.714604 33.113646 6.107271 -0.489445 -30.780656 -0.770806 -7.708154 29.250578 -4.280305 3.758777 -41.529117 0.000000 0.000000 0.000000 -34.200235 3.912569 -3.838456 -38.082583 -13.330726 -3.223440 -52.411393 -73.863976 46.405341 0.000000 0.000000 0.000000 26.059346 0.408427 -2.065423 44.915592 -3.119781 -7.837263 1.892873 59.563485 4.056096 0.000000 0.000000 0.000000 
-0.344552 0.935000 2.859862 -10.202953 6.805330 -15.455496 13.670322 -0.144321 1.104435 -1.870012 -4.807787 59.449346 -3.157572 -3.461822 5.234069 0.000000 0.000000 0.000000 -4.403981 1.175648 -60.882580 20.946884 -21.655350 81.891828 -11.741065 -27.075926 2.591193 0.000000 0.000000 0.000000 5.333804 -3.791699 33.219469 6.268475 -0.453061 -31.919235 -0.789799 -5.877714 29.268242 -2.095411 3.013214 -40.561858 0.000000 0.000000 0.000000 -34.348890 3.697693 -4.468952 -37.951520 -10.572660 -3.776089 -58.101542 -72.571214 49.685970 0.000000 0.000000 0.000000 26.177335 0.509089 -1.406469 44.414232 -0.367446 -6.989485 -2.409563 63.181209 2.230504 0.000000 0.000000 0.000000 
-0.350337 0.972494 2.893180 -9.569728 6.522076 -15.007219 11.861564 0.037757 -6.283550 -5.015178 -3.300611 68.338834 0.415303 1.699542 1.727329 0.000000 0.000000 0.000000 -3.785635 1.704354 -58.000612 20.303188 -20.798216 81.166017 -11.749490 -27.000685 3.219823 0.000000 0.000000 0.000000 3.914493 -3.477848 34.071261 6.605765 -0.542546 -31.628483 0.113567 -5.145816 27.524939 -2.298449 3.165759 -39.767242 0.000000 0.000000 0.000000 -34.007234 5.599589 -6.064300 -38.705632 -8.372040 -4.242629 -68.401369 -70.909293 56.885753 0.000000 0.000000 0.000000 23.608339 1.125969 -0.763467 45.156780 0.220447 -6.796267 -7.194282 68.452414 -0.632242 0.000000 0.000000 0.000000 
